<svg id="Capa_1" enable-background="new 0 0 512 512" height="512" viewBox="0 0 512 512" width="512" xmlns="http://www.w3.org/2000/svg"><g><path d="m340.17 362h-84.17-85.331l85.331 79.05 66.885 70.95 19.087-60h73.198z" fill="#cd0000"/><g><path d="m256 362h-84.166l-75.004 90h73.272l19.482 60 66.416-70.95 73.998-79.05z" fill="#ff80aa"/><path d="m256 362v79.05l73.998-79.05z" fill="#f37"/></g><ellipse cx="256" cy="196" fill="#ffe666" rx="195" ry="196"/><path d="m451 196c0-107.52-87.48-196-195-196v392c107.52 0 195-88.48 195-196z" fill="#fabe2c"/><path d="m256 61c-74.443 0-135 60.557-135 135s60.557 136 135 136 135-61.557 135-136-60.557-135-135-135z" fill="#ff80aa"/><path d="m391 196c0-74.443-60.557-135-135-135v271c74.443 0 135-61.557 135-136z" fill="#f37"/><path d="m284.667 136.557c-10.679 0-20.537 3.398-28.667 9.668-8.13-6.27-17.988-9.668-28.667-9.668-24.243 0-46.333 22.617-46.333 47.446 0 23.701 20.112 45.938 67.266 74.341l7.734 4.673 7.734-4.673c47.154-28.404 67.266-50.64 67.266-74.341 0-24.829-22.09-47.446-46.333-47.446z" fill="#ffe666"/><path d="m331 184.003c0-24.829-22.09-47.446-46.333-47.446-10.679 0-20.537 3.398-28.667 9.668v116.792l7.734-4.673c47.154-28.404 67.266-50.64 67.266-74.341z" fill="#fabe2c"/></g></svg>