<svg id="Capa_1" enable-background="new 0 0 512 512" height="512" viewBox="0 0 512 512" width="512" xmlns="http://www.w3.org/2000/svg"><g><g><path d="m334.757 195-146.257-195h-157.5l146.25 195z" fill="#f37"/></g><path d="m256 195h-15v60h15 15v-60z" fill="#fabe2c"/><path d="m256 195h15v60h-15z" fill="#ff9100"/><ellipse cx="256" cy="376" fill="#ffe666" rx="135" ry="136"/><path d="m391 376c0-74.443-60.557-136-135-136v272c74.443 0 135-61.557 135-136z" fill="#fabe2c"/><path d="m323.5 0-67.5 90-78.75 105h78.75 78.75l146.25-195z" fill="#ff80aa"/><path d="m481 0h-157.5l-67.5 90v105h78.75z" fill="#f37"/><circle cx="256" cy="376" fill="#fabe2c" r="75"/><path d="m331 376c0-41.353-33.647-75-75-75v150c41.353 0 75-33.647 75-75z" fill="#ff9100"/><path d="m256 180h-135v30h135 135v-30z" fill="#ffe666"/><path d="m256 180h135v30h-135z" fill="#fabe2c"/></g></svg>